<?xml version="1.0" encoding="UTF-8"?><svg id="Ebene_1" xmlns="http://www.w3.org/2000/svg" viewBox="0 0 1367 769.74"><rect x=".5" y=".87" width="1366" height="768" style="fill:#ccc; stroke:#404040; stroke-miterlimit:10;"/><line x1=".5" y1="768.87" x2="1366.5" y2=".87" style="fill:none; stroke:#e6e6e6; stroke-miterlimit:10; stroke-width:2px;"/><line x1=".5" y1=".87" x2="1366.5" y2="768.87" style="fill:none; stroke:#e6e6e6; stroke-miterlimit:10; stroke-width:2px;"/><path d="M1063.77,724.9c2.02-.34,4.66-.62,8.02-.62,4.13,0,7.15.96,9.07,2.69,1.78,1.54,2.83,3.89,2.83,6.77s-.86,5.23-2.5,6.91c-2.21,2.35-5.81,3.55-9.89,3.55-1.25,0-2.4-.05-3.36-.29v12.96h-4.18v-31.97ZM1067.95,740.5c.91.24,2.06.34,3.46.34,5.04,0,8.11-2.45,8.11-6.91s-3.02-6.34-7.63-6.34c-1.82,0-3.22.14-3.94.34v12.58Z" style="fill:#f2f2f2;"/><path d="M1088.92,722.79h4.22v34.08h-4.22v-34.08Z" style="fill:#f2f2f2;"/><path d="M1113.12,756.87l-.34-2.93h-.14c-1.3,1.82-3.79,3.46-7.1,3.46-4.71,0-7.11-3.31-7.11-6.67,0-5.62,4.99-8.69,13.97-8.64v-.48c0-1.92-.53-5.38-5.28-5.38-2.16,0-4.42.67-6.05,1.73l-.96-2.78c1.92-1.25,4.7-2.06,7.63-2.06,7.1,0,8.83,4.85,8.83,9.5v8.69c0,2.02.1,3.98.38,5.57h-3.84ZM1112.49,745.01c-4.61-.1-9.84.72-9.84,5.23,0,2.74,1.82,4.03,3.98,4.03,3.02,0,4.94-1.92,5.62-3.89.14-.43.24-.91.24-1.34v-4.03Z" style="fill:#f2f2f2;"/><path d="M1128.29,726.97v6.67h6.05v3.22h-6.05v12.53c0,2.88.82,4.51,3.17,4.51,1.1,0,1.92-.14,2.45-.29l.19,3.17c-.82.34-2.11.58-3.74.58-1.97,0-3.55-.62-4.56-1.78-1.2-1.25-1.63-3.31-1.63-6.05v-12.67h-3.6v-3.22h3.6v-5.57l4.13-1.1Z" style="fill:#f2f2f2;"/><path d="M1136.45,754.42l10.51-13.68c1.01-1.25,1.97-2.35,3.02-3.6v-.1h-12.58v-3.41h17.71l-.05,2.64-10.37,13.49c-.96,1.3-1.92,2.45-2.98,3.65v.1h13.58v3.36h-18.87v-2.45Z" style="fill:#f2f2f2;"/><path d="M1159.63,722.79h4.22v14.5h.1c.67-1.2,1.73-2.26,3.02-2.98,1.25-.72,2.74-1.2,4.32-1.2,3.12,0,8.11,1.92,8.11,9.94v13.83h-4.22v-13.34c0-3.75-1.39-6.91-5.38-6.91-2.74,0-4.9,1.92-5.67,4.22-.24.58-.29,1.2-.29,2.02v14.02h-4.22v-34.08Z" style="fill:#f2f2f2;"/><path d="M1199.13,756.87l-.34-2.93h-.14c-1.3,1.82-3.79,3.46-7.1,3.46-4.71,0-7.11-3.31-7.11-6.67,0-5.62,4.99-8.69,13.97-8.64v-.48c0-1.92-.53-5.38-5.28-5.38-2.16,0-4.42.67-6.05,1.73l-.96-2.78c1.92-1.25,4.7-2.06,7.63-2.06,7.1,0,8.83,4.85,8.83,9.5v8.69c0,2.02.1,3.98.38,5.57h-3.84ZM1198.51,745.01c-4.61-.1-9.84.72-9.84,5.23,0,2.74,1.82,4.03,3.98,4.03,3.02,0,4.94-1.92,5.62-3.89.14-.43.24-.91.24-1.34v-4.03Z" style="fill:#f2f2f2;"/><path d="M1209.4,722.79h4.22v34.08h-4.22v-34.08Z" style="fill:#f2f2f2;"/><path d="M1225.82,726.97v6.67h6.05v3.22h-6.05v12.53c0,2.88.82,4.51,3.17,4.51,1.1,0,1.92-.14,2.45-.29l.19,3.17c-.82.34-2.11.58-3.74.58-1.97,0-3.55-.62-4.56-1.78-1.2-1.25-1.63-3.31-1.63-6.05v-12.67h-3.6v-3.22h3.6v-5.57l4.13-1.1Z" style="fill:#f2f2f2;"/><path d="M1238.68,746.02c.1,5.71,3.74,8.06,7.97,8.06,3.02,0,4.85-.53,6.43-1.2l.72,3.02c-1.49.67-4.03,1.44-7.73,1.44-7.15,0-11.42-4.71-11.42-11.71s4.13-12.53,10.9-12.53c7.58,0,9.6,6.67,9.6,10.94,0,.86-.1,1.54-.14,1.97h-16.32ZM1251.07,743c.05-2.69-1.1-6.87-5.86-6.87-4.27,0-6.14,3.94-6.48,6.87h12.34Z" style="fill:#f2f2f2;"/><path d="M1260.38,740.89c0-2.74-.05-5.09-.19-7.25h3.7l.14,4.56h.19c1.06-3.12,3.6-5.09,6.43-5.09.48,0,.82.05,1.2.14v3.98c-.43-.1-.86-.14-1.44-.14-2.98,0-5.09,2.26-5.66,5.42-.1.58-.19,1.25-.19,1.97v12.38h-4.18v-15.99Z" style="fill:#f2f2f2;"/><path d="M1286.25,722.79h4.22v14.5h.1c.67-1.2,1.73-2.26,3.02-2.98,1.25-.72,2.74-1.2,4.32-1.2,3.12,0,8.11,1.92,8.11,9.94v13.83h-4.22v-13.34c0-3.75-1.39-6.91-5.38-6.91-2.74,0-4.9,1.92-5.67,4.22-.24.58-.29,1.2-.29,2.02v14.02h-4.22v-34.08Z" style="fill:#f2f2f2;"/><path d="M1315.24,746.02c.1,5.71,3.74,8.06,7.97,8.06,3.02,0,4.85-.53,6.43-1.2l.72,3.02c-1.49.67-4.03,1.44-7.73,1.44-7.15,0-11.42-4.71-11.42-11.71s4.13-12.53,10.9-12.53c7.58,0,9.6,6.67,9.6,10.94,0,.86-.1,1.54-.14,1.97h-16.32ZM1327.63,743c.05-2.69-1.1-6.87-5.86-6.87-4.27,0-6.14,3.94-6.48,6.87h12.34Z" style="fill:#f2f2f2;"/><path d="M1336.94,722.79h4.22v34.08h-4.22v-34.08Z" style="fill:#f2f2f2;"/><path d="M1348.26,722.79h4.22v34.08h-4.22v-34.08Z" style="fill:#f2f2f2;"/></svg>